PathFileType	4	(X/Y/Z)	C:/Users/beibeiliu/ov580/test_trc/User2\sequence.18_training_dense_right.trc
DataRate	CameraRate	NumFrames	NumMarkers	Units	OrigDataRate	OrigDataStartFrame	OrigNumFrames
120	120	20	19	mm	120	269	429
Frame#	Time	ThumbCMC			ThumbMCP			ThumbIP			ThumbTip			IndexMCP			IndexPIP			IndexTip			MiddleMCP			MiddlePIP			MiddleTip			RingMCP			RingPIP			RingTip			PinkyMCP			PinkyPIP			PinkyTip			BackHand1			BackHand2			BackHand3	
		X0	Y0	Z0	X1	Y1	Z1	X2	Y2	Z2	X3	Y3	Z3	X4	Y4	Z4	X5	Y5	Z5	X6	Y6	Z6	X7	Y7	Z7	X8	Y8	Z8	X9	Y9	Z9	X10	Y10	Z10	X11	Y11	Z11	X12	Y12	Z12	X13	Y13	Z13	X14	Y14	Z14	X15	Y15	Z15	X16	Y16	Z16	X17	Y17	Z17	X18	Y18	Z18	
268	2.23333	100.247	21.7507	0.550323	81.633	27.1235	-32.5888	61.8151	20.9923	-56.4859	41.5348	6.13704	-76.299	62.8818	-22.4855	-66.7942	36.3488	-5.5965	-64.8382	48.974	7.48143	-34.9971	49.3142	-37.7329	-56.9351	22.6935	-17.5142	-52.6188	41.8882	-3.2067	-16.5609	36.3033	-45.8852	-43.1658	16.9165	-23.1991	-34.2621	40.596	-11.3815	-10.4724	32.6981	-56.9983	-19.2565	12.7946	-28.5493	-15.8328	35.1398	-17.3281	7.2396	85.8216	-51.1126	-0.341297	101.518	-41.6995	32.5127	111.815	-16.4416	0.178312	
269	2.24167	94.401	20.6441	1.78825	79.3745	27.5067	-28.3701	59.9128	22.2985	-57.4955	42.6587	8.20102	-74.7239	69.6289	-15.5966	-67.9514	37.3936	-8.67625	-64.3053	46.3143	3.60284	-34.2254	58.0907	-34.2304	-59.53	23.4375	-20.8994	-50.328	42.3685	-5.78371	-16.5609	44.641	-49.2249	-43.319	19.7037	-30.058	-37.8933	39.4773	-14.4512	-11.7122	37.6598	-61.0607	-22.9935	16.534	-35.5	-18.1343	36.5964	-22.7087	4.7278	93.0589	-49.7253	-2.62336	107.059	-40.1751	26.758	113.192	-12.5279	-1.48198	
270	2.25	90.8435	27.7592	3.75954	73.1453	34.4474	-24.141	56.1467	25.3463	-51.1913	41.3719	8.8266	-70.1344	70.3136	-13.3755	-66.3081	38.1961	-8.72678	-63.6616	44.6492	4.00662	-32.8043	60.7353	-30.5639	-62.0507	26.372	-22.8969	-54.3277	40.7106	-2.56249	-19.098	47.7145	-47.1208	-47.2937	22.7964	-29.2646	-37.3211	43.3688	-16.2637	-9.91425	45.6359	-61.9612	-27.0739	19.029	-41.9548	-20.9837	38.2639	-24.1089	-1.26771	96.504	-43.9693	-0.786102	110.892	-34.0305	28.9871	113.711	-8.06244	3.05234	
271	2.25833	79.6214	30.5541	10.9454	61.1684	36.7345	-19.0412	45.6673	31.272	-49.4267	36.6853	10.6032	-68.9591	68.9217	-2.78778	-63.9935	36.9738	-3.42476	-63.8679	45.5826	5.60987	-27.6522	62.7957	-25.0903	-61.4376	27.039	-23.6842	-55.7523	34.739	-8.77478	-18.8434	54.5324	-44.0668	-49.4156	24.0941	-36.5033	-38.6175	39.4707	-19.2766	-11.1693	52.4256	-58.811	-32.222	22.0545	-43.3406	-23.5218	35.5301	-25.4571	-1.96244	100.538	-37.7738	-6.4886	107.839	-32.9824	31.9542	109.659	1.16732	4.71681	
272	2.26667	66.7725	28.9821	15.2655	48.3737	32.3206	-11.4631	35.2753	27.309	-43.6545	27.1174	12.0555	-62.8541	64.4602	8.5918	-60.1046	33.2231	-1.52861	-60.6688	37.9065	6.16598	-26.1951	61.419	-20.9029	-62.3271	25.7347	-21.9043	-54.8061	33.7197	-8.78954	-14.8699	58.619	-36.6829	-52.3297	25.0254	-37.5581	-41.7238	36.2669	-22.4735	-13.0405	54.8997	-57.169	-38.3566	24.6677	-47.8861	-27.7931	36.2843	-32.8134	-0.672551	98.5368	-29.7582	-4.88334	108.452	-26.5407	28.5887	101.689	3.54332	9.8571	
273	2.275	54.6068	26.4439	25.0858	36.2398	26.8688	-5.29406	19.2411	27.0914	-34.6861	18.5004	9.92836	-60.9374	58.3344	14.8875	-55.1178	27.7341	3.73716	-57.7828	35.4535	4.69775	-22.2012	61.621	-11.7638	-59.0773	24.1537	-20.2362	-53.4312	27.4404	-13.828	-16.0141	56.8884	-33.0212	-54.2181	28.1703	-37.4896	-44.7848	36.3603	-22.7912	-11.2148	62.2365	-53.0091	-40.1686	29.8157	-47.6096	-35.2929	33.2634	-37.1807	-5.0668	99.2116	-20.8051	-0.638112	103.173	-21.6996	28.7795	93.2043	10.4072	11.4531	
274	2.28333	45.2405	20.2605	33.0668	24.6633	22.6629	5.0801	10.3504	23.2813	-33.1373	13.2315	6.13023	-54.8346	47.3318	22.1421	-51.9243	23.2143	4.1772	-53.0535	27.1429	6.37365	-17.1678	54.219	-1.59729	-58.431	23.714	-18.899	-53.0172	24.4023	-14.9404	-13.2511	56.1447	-26.9297	-56.1709	29.9254	-33.2466	-48.9659	35.6591	-28.1559	-10.6062	66.6732	-46.7371	-41.905	32.2089	-49.7046	-36.0599	36.9414	-42.9148	-5.1131	97.4791	-13.397	-0.560774	104.422	-20.3638	35.266	85.3937	12.7913	18.2624	
275	2.29167	36.9098	14.5587	35.0171	14.2975	19.3061	5.99908	6.30778	17.0809	-26.676	6.70251	7.7208	-53.254	43.7853	23.7918	-44.1466	16.9262	4.50535	-50.0546	23.4071	3.19158	-12.5012	54.323	1.80435	-54.7279	23.3968	-17.6668	-53.4359	24.9059	-21.2508	-16.1407	60.7078	-19.804	-52.1631	32.7314	-36.4323	-48.3164	33.812	-29.9223	-13.8738	66.1406	-39.5332	-45.9169	35.8816	-45.767	-37.8007	37.8809	-43.8829	-6.88486	94.0838	-11.3458	-2.02745	99.1503	-13.5443	35.9925	77.9774	13.4189	24.7728	
276	2.3	30.552	7.23452	40.7882	7.52473	13.6183	11.6477	-4.48332	16.4547	-21.9986	-0.135641	9.51746	-51.5186	37.029	25.9975	-39.9099	16.8771	2.21479	-51.2709	17.5347	-3.32334	-12.6249	49.4077	9.111	-49.1368	23.7027	-18.6891	-53.9115	26.1698	-26.1139	-16.9968	55.3427	-14.9672	-53.9862	31.9368	-34.2787	-47.6292	35.4494	-33.4801	-15.0508	67.3539	-30.3508	-45.1772	38.9282	-45.0838	-39.7811	40.3904	-46.3689	-7.70565	89.0474	-4.55669	1.5192	96.8355	-15.309	38.1537	71.0775	14.2369	27.2447	
277	2.30833	27.3106	1.2197	37.3944	7.62932	6.61539	12.1516	-5.49336	12.0026	-21.9984	-4.03823	6.53541	-45.3649	31.252	23.1281	-39.9107	12.2193	1.26439	-51.2038	16.5973	-12.4055	-14.4531	47.7171	8.97826	-48.7208	25.5626	-17.9788	-56.7353	29.3082	-27.5697	-14.0652	55.1071	-11.5342	-52.3546	37.8433	-35.1613	-52.226	37.2565	-32.3206	-12.9814	72.0526	-28.5657	-43.7825	44.8804	-49.7403	-42.0641	45.1272	-45.4052	-10.1397	87.6936	-2.33297	4.76637	93.9113	-10.9996	41.0786	62.5807	16.2946	32.5816	
278	2.31667	20.7527	-4.47582	39.9295	4.78526	1.01822	11.6671	-7.61759	6.79459	-20.7714	-5.98347	6.3491	-48.2619	24.7602	22.0877	-37.9458	10.9978	-4.32307	-52.4339	13.0244	-21.361	-22.963	45.2831	6.8369	-49.1201	24.9098	-19.343	-58.0494	25.3673	-32.4172	-18.8893	54.285	-9.85804	-52.1553	38.8367	-35.4315	-52.8649	41.228	-36.8858	-16.5475	74.5292	-24.417	-43.5823	51.5367	-49.0601	-47.8071	49.0169	-50.2801	-10.7125	83.8762	-0.198768	6.36082	93.6131	-10.4575	41.8373	56.007	13.165	34.0535	
279	2.325	20.4144	-11.913	41.4206	1.08119	-6.55442	13.7804	-11.332	0.685978	-18.5755	-8.97105	0.711714	-44.3665	25.2383	15.3416	-38.6699	12.842	-10.0652	-54.4769	7.45204	-29.2379	-27.2786	42.5224	4.87797	-47.9834	26.1922	-26.9457	-57.8759	26.7558	-38.4351	-21.4576	54.8268	-10.2667	-51.4699	40.9785	-38.2036	-54.638	42.7554	-42.6705	-19.5335	77.2457	-25.5736	-44.7966	55.0684	-50.0999	-49.0696	50.2559	-52.5434	-14.3564	84.9322	-1.80433	10.2912	87.871	-7.60901	41.6523	54.9093	10.1758	34.8312	
280	2.33333	18.7207	-18.5465	41.9161	1.82539	-14.1361	14.3917	-7.53469	-5.70601	-22.6235	-9.70956	-4.72865	-48.4743	24.6639	9.3384	-38.6063	11.0284	-16.8458	-56.7403	8.13365	-35.7568	-26.4546	39.5878	-0.266528	-52.853	29.0108	-30.3807	-60.3688	29.1643	-42.1223	-19.3864	52.9909	-14.2196	-53.4181	41.2122	-39.7226	-57.3416	45.908	-45.7536	-19.3795	76.1029	-24.3638	-43.6077	56.4011	-53.1224	-50.1703	53.4253	-53.8385	-15.7981	79.7812	-0.557309	6.09561	87.9228	-9.27628	39.6217	50.1567	6.1237	31.2686	
281	2.34167	19.3919	-20.7576	40.0241	1.1886	-16.9779	10.9343	-6.52691	-11.6817	-22.282	-11.1759	-11.0355	-48.4471	22.3072	4.96254	-38.5752	9.66173	-20.4378	-57.4549	11.2917	-41.7138	-29.8822	40.4253	-2.57925	-50.6363	24.0218	-36.3952	-59.3282	30.5827	-46.2821	-21.1965	58.391	-17.3632	-51.1412	42.4222	-45.6808	-56.0791	44.2886	-46.0135	-18.7802	75.6577	-27.3885	-44.3058	57.1689	-54.2427	-50.6737	57.6314	-59.2635	-14.5632	77.8219	-4.09901	6.50543	85.0291	-10.4616	39.4083	48.4261	3.77698	32.125	
282	2.35	17.7113	-22.5772	40.0641	-2.7279	-20.6958	12.5707	-10.7316	-18.0602	-19.4083	-11.1416	-18.0605	-46.1931	15.7544	0.518537	-41.8198	12.1714	-26.3144	-57.4773	13.2613	-45.2383	-26.0656	38.3645	-8.07455	-53.6846	25.9551	-41.3209	-58.5905	28.707	-48.0742	-19.2169	53.5385	-22.1232	-54.9257	43.1175	-49.2916	-54.9724	43.3961	-49.629	-19.1755	75.3793	-29.0449	-44.216	56.2522	-58.606	-48.5918	54.5421	-58.4931	-14.9494	79.5075	-3.41392	6.51419	84.0308	-10.4429	41.874	46.2986	3.9758	31.0878	
283	2.35833	18.8657	-24.3931	40.6207	-0.881559	-23.0304	11.9653	-9.574	-21.9674	-20.1013	-9.92486	-22.3408	-45.8191	15.2353	-1.69419	-38.4504	9.49135	-32.9968	-54.7697	9.68953	-48.1192	-21.9629	35.1622	-10.3595	-49.7252	25.9629	-44.67	-57.4549	29.8191	-51.3388	-18.1284	55.9273	-25.5423	-53.1193	42.674	-54.7544	-53.1521	45.4542	-54.4668	-18.1455	76.0652	-33.62	-44.2176	58.7665	-62.8008	-48.5424	56.341	-61.0427	-16.6271	76.8108	-6.18719	5.22713	87.6917	-11.4205	38.7733	47.1995	2.04419	31.844	
284	2.36667	19.989	-25.6799	42.7856	-3.27761	-24.7138	15.0326	-14.5231	-24.3745	-14.3828	-16.6714	-24.7552	-45.9479	11.2292	-4.33526	-36.1966	3.66093	-33.7742	-53.5432	5.91477	-49.3812	-19.5051	30.5577	-13.4715	-49.7141	20.4861	-48.7664	-54.6059	24.9851	-52.9084	-14.4263	49.8295	-27.2758	-53.5226	41.4048	-55.8335	-53.3319	42.795	-54.0188	-14.4033	67.0538	-34.9057	-44.7679	50.8588	-62.2695	-43.2726	54.6812	-61.3664	-14.214	76.2325	-6.86875	3.58542	85.6633	-8.94761	40.2234	49.4488	1.49111	32.0362	
285	2.375	18.9424	-24.9121	42.825	-2.09178	-26.0664	18.2379	-17.3431	-25.8612	-11.9568	-17.8725	-27.8811	-39.6955	6.74154	-6.97725	-35.121	3.11138	-36.0407	-50.1562	4.43925	-51.0351	-17.3224	25.0064	-14.2906	-46.0368	16.1666	-50.4834	-51.2602	24.9817	-55.8987	-13.5467	45.7466	-30.6929	-51.973	35.7146	-57.555	-51.5558	43.3494	-56.9016	-12.9302	65.2324	-37.8922	-46.2748	48.6458	-66.0471	-40.7755	53.125	-65.6331	-10.6901	70.4883	-3.91493	6.50154	81.4996	-7.62989	35.2227	44.5089	0.459108	34.6902	
286	2.38333	18.4879	-25.8216	44.6063	-5.88767	-26.1748	21.3555	-21.1444	-26.6424	-9.64981	-22.0904	-28.991	-37.2257	6.60339	-8.22227	-33.2329	-1.30316	-34.7652	-48.1212	3.3625	-51.3323	-15.3627	23.4269	-16.8867	-48.2581	17.3638	-50.3425	-52.0052	20.8614	-54.6307	-9.99691	41.296	-30.2855	-51.0423	32.0357	-59.3897	-45.6954	37.7643	-56.124	-12.5967	64.374	-36.6022	-43.1037	47.829	-65.6263	-40.8169	52.7756	-63.6327	-6.15017	70.7905	-5.25582	6.39854	81.698	-7.953	38.3678	41.1567	2.36854	35.1883	
287	2.39167	15.5149	-26.0393	51.076	-7.40451	-27.2151	25.2929	-23.3484	-25.6537	-5.29779	-21.4376	-27.6607	-33.1116	3.00708	-6.10274	-30.0156	-7.05921	-34.4635	-45.1271	3.87012	-49.8621	-10.7145	18.486	-12.8641	-41.4768	12.5928	-48.0652	-50.3869	19.3279	-52.5997	-7.17276	42.1535	-28.0929	-48.1787	30.2027	-58.2449	-43.8056	40.7999	-52.8072	-7.32343	60.868	-36.1047	-44.0682	46.373	-66.2217	-37.2555	48.451	-62.6961	-9.50691	70.5423	-2.44869	6.74899	80.3543	-6.85806	35.853	38.5687	0.332949	37.3755	
